El conocido director Quentin Tarantino (‘Kill Bill’ y ‘Malditos Bastardos’) produce ‘The Man With the Iron Fists’, una intensa película de acción inspirada en los clásicos de artes marciales y kung-fu propios de la cultura oriental. El film está dirigido por uno de los más antiguos colaboradores del productor, el músico RZA, quien también escribe el guion junto a otro veterano cómplice en los proyectos de Tarantino, el artista estadounidense Eli Roth.
RZA debuta como director en la gran pantalla con este largometraje, que contando con un reparto de alta calidad, narra una legendaria historia sobre un héroe forastero y solitario, valientes guerreros y sanguinarios asesinos en la China del siglo XIX. Los protagonistas de la historia tendrán que luchar contra un desalmado clan que intentará destruir su comunidad.
El extranjero herrero de la ciudad, dedicado a la creación de armas desde su llegada, invocará una extraordinaria energía mística con el objetivo de convertirse en una potente arma humana. Deberá aprovechar su poder para frenar las actuaciones de la organización enemiga y proteger a los habitantes de su entorno.
Una historia ambientada en la China feudal con considerables dosis de violencia y artes marciales, que inicia la trayectoria del famoso cantante como director cinematográfico.


FICHA TECNICA


Format                                   : Matroska
Format version                           : Version 4 / Version 2
File size                                : 4.45 GiB
Duration                                 : 1h 47mn
Overall bit rate mode                    : Variable
Overall bit rate                         : 5 924 Kbps
Movie name                               : The Man with the Iron Fists (2012) UNRATED 720p BluRay x264 DD5.1-HDG
Encoded date                             : UTC 2013-02-06 13:59:08
Writing application                      : mkvmerge v6.0.0 ('Coming Up For Air') built on Jan 20 2013 09:52:00
Writing library                          : libebml v1.3.0 + libmatroska v1.4.0

Video
ID                                       : 1
Format                                   : AVC
Format/Info                              : Advanced Video Codec
Format profile                           : High@L4.1
Format settings, CABAC                   : Yes
Format settings, ReFrames                : 11 frames
Codec ID                                 : V_MPEG4/ISO/AVC
Duration                                 : 1h 47mn
Bit rate mode                            : Variable
Bit rate                                 : 5 155 Kbps
Maximum bit rate                         : 38.0 Mbps
Width                                    : 1 280 pixels
Height                                   : 534 pixels
Display aspect ratio                     : 2.40:1
Frame rate mode                          : Constant
Frame rate                               : 23.976 fps
Color space                              : YUV
Chroma subsampling                       : 4:2:0
Bit depth                                : 8 bits
Scan type                                : Progressive
Bits/(Pixel*Frame)                       : 0.315
Stream size                              : 3.78 GiB (85%)
Writing library                          : x264 core 129 r2245 bc13772
Encoding settings                        : cabac=1 / ref=12 / deblock=1:-3:-3 / analyse=0x3:0x113 / me=tesa / subme=11 / psy=1 / psy_rd=1.10:0.00 / mixed_ref=1 / me_range=16 / chroma_me=1 / trellis=2 / 8x8dct=1 / cqm=0 / deadzone=21,11 / fast_pskip=0 / chroma_qp_offset=-2 / threads=9 / lookahead_threads=1 / sliced_threads=0 / nr=0 / decimate=0 / interlaced=0 / bluray_compat=0 / constrained_intra=0 / bframes=8 / b_pyramid=1 / b_adapt=2 / b_bias=0 / direct=1 / weightb=1 / open_gop=0 / weightp=2 / keyint=24 / keyint_min=2 / scenecut=40 / intra_refresh=0 / rc_lookahead=24 / rc=2pass / mbtree=1 / bitrate=5155 / ratetol=1.0 / qcomp=0.60 / qpmin=0 / qpmax=69 / qpstep=4 / cplxblur=20.0 / qblur=0.5 / vbv_maxrate=38000 / vbv_bufsize=30000 / nal_hrd=vbr / ip_ratio=1.40 / aq=2:1.00
Default                                  : Yes
Forced                                   : No

Audio
ID                                       : 2
Format                                   : DTS
Format/Info                              : Digital Theater Systems
Mode                                     : 16
Format settings, Endianness              : Big
Codec ID                                 : A_DTS
Duration                                 : 1h 47mn
Bit rate mode                            : Constant
Bit rate                                 : 768 Kbps
Channel(s)                               : 6 channels
Channel positions                        : Front: L C R, Side: L R, LFE
Sampling rate                            : 48.0 KHz
Bit depth                                : 24 bits
Compression mode                         : Lossy
Stream size                              : 590 MiB (13%)
Title                                    : Español Latino
Language                                 : Spanish
Default                                  : Yes
Forced                                   : No

Text
ID                                       : 3
Format                                   : UTF-8
Codec ID                                 : S_TEXT/UTF8
Codec ID/Info                            : UTF-8 Plain Text
Title                                    : Sub Forzados
Language                                 : Spanish
Default                                  : Yes
Forced                                   : Yes

Menu
00:00:00.000                             : en:00:00:00.000
00:07:39.918                             : en:00:07:39.918
00:12:13.066                             : en:00:12:13.066
00:18:06.544                             : en:00:18:06.544
00:21:39.340                             : en:00:21:39.340
00:28:38.508                             : en:00:28:38.508
00:32:09.427                             : en:00:32:09.427
00:37:10.019                             : en:00:37:10.019
00:44:16.612                             : en:00:44:16.612
00:47:35.477                             : en:00:47:35.477
00:53:55.691                             : en:00:53:55.691
01:01:18.633                             : en:01:01:18.633
01:09:47.308                             : en:01:09:47.308
01:14:37.431                             : en:01:14:37.431
01:21:28.508                             : en:01:21:28.508
01:24:37.739                             : en:01:24:37.739
01:30:41.394                             : en:01:30:41.394
01:33:44.994                             : en:01:33:44.994
01:37:31.637                             : en:01:37:31.637
01:41:11.232                             : en:01:41:11.232
01:47:26.231                             : en:01:47:26.231